# Created by Open3D 
# object name: star_rotated
# number of vertices: 14
# number of triangles: 24
v -0.158114 0.0578737 -0.215988
vn 0.577351 -0.211324 0.788675
v 0 0.547722 -0.316228
vn 0 -0.866025 0.500001
v -0.158114 0.215988 0.0578737
vn 0.577351 -0.788675 -0.211324
v 0.158114 0.0578737 -0.215988
vn -0.577351 -0.211324 0.788675
v -0.632456 0 0
vn 1 0 0
v -0.158114 -0.215988 -0.0578737
vn 0.577351 0.788675 0.211324
v 0 -0.316228 -0.547722
vn 0 0.500001 0.866025
v 0.158114 0.215988 0.0578737
vn -0.577351 -0.788675 -0.211324
v -0.158114 -0.0578737 0.215988
vn 0.577351 0.211324 -0.788675
v 0 0.316228 0.547722
vn 0 -0.500001 -0.866025
v 0 -0.547722 0.316228
vn 0 0.866025 -0.500001
v 0.158114 -0.215988 -0.0578737
vn -0.577351 0.788675 0.211324
v 0.632456 0 0
vn -1 0 0
v 0.158114 -0.0578737 0.215988
vn -0.577351 0.211324 -0.788675
f 1//1 2//2 3//3
f 4//4 2//2 1//1
f 3//3 5//5 1//1
f 1//1 5//5 6//6
f 1//1 7//7 4//4
f 6//6 7//7 1//1
f 3//3 2//2 8//8
f 8//8 2//2 4//4
f 9//9 5//5 3//3
f 8//8 10//10 3//3
f 3//3 10//10 9//9
f 6//6 5//5 9//9
f 6//6 11//11 12//12
f 9//9 11//11 6//6
f 12//12 7//7 6//6
f 4//4 7//7 12//12
f 12//12 13//13 4//4
f 14//14 13//13 12//12
f 12//12 11//11 14//14
f 14//14 11//11 9//9
f 9//9 10//10 14//14
f 14//14 10//10 8//8
f 4//4 13//13 8//8
f 8//8 13//13 14//14
